<svg id="Group_587" data-name="Group 587" xmlns="http://www.w3.org/2000/svg" xmlns:xlink="http://www.w3.org/1999/xlink" width="111.4" height="111.4" viewBox="0 0 111.4 111.4">
  <defs>
    <linearGradient id="linear-gradient" x1="0.5" x2="0.5" y2="1.001" gradientUnits="objectBoundingBox">
      <stop offset="0.119" stop-color="#d08d48"/>
      <stop offset="1" stop-color="#5e2a08"/>
    </linearGradient>
    <linearGradient id="linear-gradient-2" x1="0.5" y1="1.001" x2="0.5" y2="0" xlink:href="#linear-gradient"/>
  </defs>
  <circle id="Ellipse_3" data-name="Ellipse 3" cx="55.7" cy="55.7" r="55.7" transform="translate(0 0)" fill="url(#linear-gradient)"/>
  <circle id="Ellipse_4" data-name="Ellipse 4" cx="47.3" cy="47.3" r="47.3" transform="translate(8.4 8.4)" fill="url(#linear-gradient-2)"/>
  <g id="Group_586" data-name="Group 586">
    <g id="Group_585" data-name="Group 585">
      <path id="Path_68" data-name="Path 68" d="M81.4,49.6a3.327,3.327,0,0,0-2.9-2.3L64.4,46,58.8,33a3.5,3.5,0,0,0-6.2,0L47,46,33,47.2a3.327,3.327,0,0,0-2.9,2.3,3.469,3.469,0,0,0,1,3.6l10.7,9.3L38.7,76.2A3.4,3.4,0,0,0,40,79.7a3.336,3.336,0,0,0,3.7.2l12.2-7.3,12.2,7.3a3.326,3.326,0,0,0,3.7-.2,3.4,3.4,0,0,0,1.3-3.5L70,62.4l10.7-9.3a3.616,3.616,0,0,0,.7-3.5Z" fill="#fff"/>
    </g>
  </g>
</svg>
