<svg xmlns="http://www.w3.org/2000/svg" width="24" height="24.465" viewBox="0 0 24 24.465"><path d="M27.515,13.729l-.124-.524H16.009v4.818h6.8a6.807,6.807,0,0,1-6.659,5.118,7.963,7.963,0,0,1-5.359-2.135,7.65,7.65,0,0,1-2.282-5.4,7.891,7.891,0,0,1,2.241-5.394,7.623,7.623,0,0,1,5.324-2.082A6.944,6.944,0,0,1,20.6,9.894l3.424-3.406a12.113,12.113,0,0,0-8.065-3.106h0A12.467,12.467,0,0,0,7.139,6.97a12.417,12.417,0,0,0-3.482,8.641A12.292,12.292,0,0,0,7,24.111a12.769,12.769,0,0,0,9.206,3.735A11.356,11.356,0,0,0,24.48,24.37a12.212,12.212,0,0,0,3.176-8.459A14.085,14.085,0,0,0,27.515,13.729Z" transform="translate(-3.656 -3.382)" fill="#fff"/></svg>