<svg xmlns="http://www.w3.org/2000/svg" xmlns:xlink="http://www.w3.org/1999/xlink" width="102" height="102" viewBox="0 0 102 102"><defs><clipPath id="a"><rect width="102" height="102" transform="translate(-0.044)" fill="#118ca0"/></clipPath></defs><g transform="translate(0.044)" clip-path="url(#a)"><g transform="translate(0 0)"><path d="M98.665,64.965A10.552,10.552,0,0,0,91.1,62.082a10.849,10.849,0,0,0-7.416,3.171l-7.79,7.758A9.917,9.917,0,0,0,68.324,69.5H46.334a29.047,29.047,0,0,0-8.817-3.344,26.5,26.5,0,0,0-20.8,4.462H0V102l15.591-3.376.046-.01a29.472,29.472,0,0,1,13.886.136l12.117,3.076h36.1L98.885,80.2a10.615,10.615,0,0,0-.22-15.237ZM94.644,75.99,75.218,95.854H42.388L31,92.962a35.492,35.492,0,0,0-16.7-.169l-8.318,1.8V76.586H18.674L19.468,76a20.568,20.568,0,0,1,16.645-4.035,22.311,22.311,0,0,1,7.648,2.967l.772.539H68.324A3.9,3.9,0,0,1,72.158,78.6l0,.01a3.807,3.807,0,0,1,.072.743A3.853,3.853,0,0,1,71.093,82.1a3.9,3.9,0,0,1-2.769,1.141H49.583v5.971H68.324a9.869,9.869,0,0,0,9.89-9.856c0-.071,0-.142-.005-.213l9.7-9.659a4.809,4.809,0,0,1,6.643-.179,4.651,4.651,0,0,1,.092,6.688Z" transform="translate(0 0)" fill="#118ca0"/><path d="M86.409,3.376l-.046.01A29.477,29.477,0,0,1,72.477,3.25L60.36.175h-36.1L3.115,21.8a10.611,10.611,0,0,0,7.512,18.123c.091,0,.183,0,.274,0a10.849,10.849,0,0,0,7.416-3.171l7.79-7.758A9.917,9.917,0,0,0,33.676,32.5h21.99a29.046,29.046,0,0,0,8.817,3.344,26.5,26.5,0,0,0,20.8-4.462H102V0Zm9.609,22.038H83.326L82.532,26a20.566,20.566,0,0,1-16.645,4.035,22.311,22.311,0,0,1-7.648-2.967l-.772-.539H33.676A3.9,3.9,0,0,1,29.841,23.4l0-.01a3.8,3.8,0,0,1-.072-.743A3.853,3.853,0,0,1,30.907,19.9a3.9,3.9,0,0,1,2.769-1.141H52.417V12.791H33.676a9.869,9.869,0,0,0-9.89,9.856c0,.071,0,.142.005.213l-9.7,9.659a4.809,4.809,0,0,1-6.643.179,4.651,4.651,0,0,1-.092-6.688L26.782,6.146H59.611L71,9.038a35.494,35.494,0,0,0,16.7.169l8.318-1.8V25.414Z" transform="translate(0 0)" fill="#118ca0"/></g></g></svg>