<svg xmlns="http://www.w3.org/2000/svg" xmlns:xlink="http://www.w3.org/1999/xlink" width="102" height="102" viewBox="0 0 102 102"><defs><clipPath id="a"><rect width="102" height="102" fill="#118ca0"/></clipPath></defs><g clip-path="url(#a)"><path d="M72.078,73.275a34.645,34.645,0,0,0-11.864-8.367L60.2,64.9a34.478,34.478,0,0,0-7.9-2.293V60.238a23.541,23.541,0,0,0,9.286-10.05c6.742-4.878,9.731-12.845,9.859-13.194.018-.049.034-.1.05-.148a26.35,26.35,0,0,0,1.167-7.682A29.2,29.2,0,0,0,43.5,0H37.777A29.2,29.2,0,0,0,8.612,29.165a25.762,25.762,0,0,0,1.144,7.611,31.01,31.01,0,0,0,10.055,14.1A23.53,23.53,0,0,0,30.285,61.062v1.357A34.639,34.639,0,0,0,0,96.782v2.233A2.985,2.985,0,0,0,2.985,102H78.29a2.985,2.985,0,0,0,2.985-2.985V96.782a34.529,34.529,0,0,0-9.2-23.507ZM62.98,96.03H55.112v-5c0-2.8,1.574-4.889,2.98-4.889H60c1.407,0,2.981,2.09,2.981,4.889ZM46.331,65.024a3.05,3.05,0,0,0-.005.326,5.037,5.037,0,0,1-10.07-.219V63.036A23.432,23.432,0,0,0,46.331,62.7ZM15.462,35.017a19.786,19.786,0,0,1-.879-5.853A23.22,23.22,0,0,1,37.777,5.97H43.5a23.221,23.221,0,0,1,23.2,23.194,20.322,20.322,0,0,1-.872,5.826A26.844,26.844,0,0,1,63.9,38.778V36.1A23.449,23.449,0,0,0,40.767,12.732h-.031a2.984,2.984,0,0,0-2.622,1.56,27.75,27.75,0,0,1-8.5,9.23,29.1,29.1,0,0,1-9.51,4.446,2.987,2.987,0,0,0-2.16,2.124,23.29,23.29,0,0,0-.79,6.013v2.6a22.408,22.408,0,0,1-1.688-3.691Zm9.47,12.762a3.037,3.037,0,0,0-.161-.332,17.3,17.3,0,0,1-1.651-7.394V36.1a17.306,17.306,0,0,1,.237-2.858,35.831,35.831,0,0,0,9.682-4.839A34.542,34.542,0,0,0,42.383,18.8,17.47,17.47,0,0,1,57.93,36.1v3.949a17.315,17.315,0,0,1-1.37,6.771,2.811,2.811,0,0,0-.149.341,17.519,17.519,0,0,1-8.2,8.5,2.9,2.9,0,0,0-.354.17,17.4,17.4,0,0,1-13.353.543,2.91,2.91,0,0,0-.36-.137,17.509,17.509,0,0,1-9.207-8.466Zm-.753,32.615a2.665,2.665,0,1,1-2.665,2.665,2.669,2.669,0,0,1,2.665-2.665ZM13.963,76.923a28.759,28.759,0,0,1,7.231-5.471v3.5a8.635,8.635,0,1,0,5.97,0V69.1a28.624,28.624,0,0,1,3.609-.724,11.007,11.007,0,0,0,20.975.2,28.517,28.517,0,0,1,4.313,1.13V80.457c-3.959,1.12-6.919,5.433-6.919,10.573v5H5.98a28.523,28.523,0,0,1,7.983-19.107ZM68.95,96.03v-5c0-5.139-2.959-9.454-6.92-10.573V72.592A28.7,28.7,0,0,1,75.3,96.03Zm0,0" transform="translate(10.362)" fill="#118ca0"/></g></svg>