<svg xmlns="http://www.w3.org/2000/svg" xmlns:xlink="http://www.w3.org/1999/xlink" width="102" height="102" viewBox="0 0 102 102"><defs><clipPath id="a"><rect width="102" height="102" transform="translate(0.044)" fill="#118ca0"/></clipPath></defs><g transform="translate(-0.044)" clip-path="url(#a)"><g transform="translate(0 5.568)"><path d="M92,11.373H90.636V8.556a2.988,2.988,0,0,0-5.977,0v2.817H75.9V8.556a2.988,2.988,0,0,0-5.977,0v2.817H61.16V8.556a2.988,2.988,0,0,0-5.977,0v2.817H46.816V8.556a2.988,2.988,0,0,0-5.977,0v2.817H32.079V8.556a2.988,2.988,0,0,0-5.977,0v2.817H17.341V8.556a2.988,2.988,0,0,0-5.977,0v2.817H10a10.009,10.009,0,0,0-10,10V86.434a10.009,10.009,0,0,0,10,10H92a10.009,10.009,0,0,0,10-10V21.371a10.009,10.009,0,0,0-10-10ZM10,17.35h1.366v2.817a2.988,2.988,0,0,0,5.977,0V17.35H26.1v2.817a2.988,2.988,0,0,0,5.977,0V17.35H40.84v2.817a2.988,2.988,0,0,0,5.977,0V17.35h8.367v2.817a2.988,2.988,0,1,0,5.977,0V17.35h8.761v2.817a2.988,2.988,0,1,0,5.977,0V17.35h8.761v2.817a2.988,2.988,0,1,0,5.977,0V17.35H92a4.026,4.026,0,0,1,4.021,4.021v5.94H5.977v-5.94A4.026,4.026,0,0,1,10,17.35ZM92,90.455H10a4.026,4.026,0,0,1-4.021-4.021V33.287H96.023V86.434A4.026,4.026,0,0,1,92,90.455Z" transform="translate(0 -5.568)" fill="#118ca0"/><path d="M69.568,52.941H59.952V43.324a2.988,2.988,0,0,0-2.988-2.988H45.038a2.988,2.988,0,0,0-2.988,2.988v9.616H32.432a2.988,2.988,0,0,0-2.988,2.988V67.855a2.988,2.988,0,0,0,2.988,2.988h9.617V80.46a2.988,2.988,0,0,0,2.988,2.988H56.964a2.988,2.988,0,0,0,2.988-2.988V70.844h9.615a2.988,2.988,0,0,0,2.988-2.988V55.929A2.988,2.988,0,0,0,69.568,52.941ZM66.58,64.867H56.964a2.988,2.988,0,0,0-2.988,2.988v9.616h-5.95V67.855a2.988,2.988,0,0,0-2.988-2.988H35.42v-5.95h9.617a2.988,2.988,0,0,0,2.988-2.988V46.312h5.95v9.616a2.988,2.988,0,0,0,2.988,2.988H66.58Z" transform="translate(0 -5.568)" fill="#118ca0"/></g></g></svg>